<?xml version="1.0" encoding="utf-8"?>
<!-- Generator: Adobe Illustrator 21.1.0, SVG Export Plug-In . SVG Version: 6.00 Build 0)  -->
<svg version="1.1" id="Layer_1" xmlns="http://www.w3.org/2000/svg" xmlns:xlink="http://www.w3.org/1999/xlink" x="0px" y="0px"
	 viewBox="0 0 512 512" style="enable-background:new 0 0 512 512;" xml:space="preserve">
<style type="text/css">
	.st0{fill:#808080;}
</style>
<g>
	<g>
		<path class="st0" d="M120.2,349.4c-5.9-5.9-15.4-5.9-21.2,0L4.4,444c-5.9,5.9-5.9,15.4,0,21.2c5.9,5.9,15.4,5.9,21.2,0l94.6-94.6
			C126.1,364.7,126.1,355.2,120.2,349.4z"/>
	</g>
</g>
<g>
	<g>
		<path class="st0" d="M77.8,306.9c-5.9-5.9-15.4-5.9-21.2,0L4.4,359.1c-5.9,5.9-5.9,15.4,0,21.2c5.9,5.9,15.4,5.9,21.2,0l52.2-52.2
			C83.6,322.3,83.6,312.8,77.8,306.9z"/>
	</g>
</g>
<g>
	<g>
		<path class="st0" d="M162.6,391.8c-5.9-5.9-15.4-5.9-21.2,0l-94.6,94.6c-5.9,5.9-5.9,15.4,0,21.2s15.4,5.9,21.2,0l94.6-94.6
			C168.5,407.1,168.5,397.6,162.6,391.8z"/>
	</g>
</g>
<g>
	<g>
		<path class="st0" d="M205.1,434.2c-5.9-5.9-15.4-5.9-21.2,0l-52.2,52.2c-5.9,5.9-5.9,15.4,0,21.2c5.9,5.9,15.4,5.9,21.2,0
			l52.2-52.2C210.9,449.6,210.9,440.1,205.1,434.2z"/>
	</g>
</g>
<g>
	<g>
		<path class="st0" d="M311.1,10L99,222.1c-4.8,4.8-8.2,10.6-10.5,16.8h224.4c8.3,0,15-6.7,15-15V0C321.7,2.1,315.9,5.2,311.1,10z"
			/>
	</g>
</g>
<g>
	<g>
		<path class="st0" d="M502,137.2L374.8,10C370,5.2,364.2,2.1,358,0v153.9h154C509.8,147.7,506.9,142,502,137.2z"/>
	</g>
</g>
<g>
	<g>
		<path class="st0" d="M358,184v39.9c0,24.8-20.3,45.1-45.1,45.1h-39.9v154.5c6.2-2.2,12-5.6,16.8-10.5L502,200.9
			c4.8-4.8,7.8-10.6,10-16.8L358,184L358,184z"/>
	</g>
</g>
<g>
	<g>
		<path class="st0" d="M88.5,269c2.2,6.2,5.6,11.9,10.5,16.7L226.3,413c4.8,4.8,10.5,8.2,16.7,10.5V269H88.5z"/>
	</g>
</g>
</svg>
